<svg xmlns="http://www.w3.org/2000/svg" viewBox="0 0 66.43 66.43"><defs><style>.cls-1{fill:#28b4a8;}.cls-2{fill:none;stroke:#28b4a8;stroke-miterlimit:10;stroke-width:2px;}</style></defs><title>Asset 1</title><g id="Layer_2" data-name="Layer 2"><g id="Layer_1-2" data-name="Layer 1"><path class="cls-1" d="M49.25,43.63a.82.82,0,0,1-.57-.23l-9.58-9a.83.83,0,1,1,1.14-1.21l9.58,9a.83.83,0,0,1-.57,1.44Z"/><path class="cls-1" d="M17.29,43.63a.83.83,0,0,1-.57-1.44l9.58-9a.83.83,0,1,1,1.14,1.21l-9.58,9A.82.82,0,0,1,17.29,43.63Z"/><path class="cls-1" d="M54.92,52H11.63a4.17,4.17,0,0,1-4.16-4.16V19.45a4.17,4.17,0,0,1,4.16-4.16H54.92a4.17,4.17,0,0,1,4.16,4.16V47.82A4.17,4.17,0,0,1,54.92,52ZM11.63,17a2.5,2.5,0,0,0-2.5,2.5V47.82a2.5,2.5,0,0,0,2.5,2.5H54.92a2.5,2.5,0,0,0,2.5-2.5V19.45a2.5,2.5,0,0,0-2.5-2.5Z"/><path class="cls-1" d="M33.27,37.81a4.65,4.65,0,0,1-3.06-1.1L8.85,18.07a.83.83,0,1,1,1.09-1.25L31.31,35.46a3.11,3.11,0,0,0,3.92,0L56.57,16.85a.83.83,0,1,1,1.1,1.25L36.33,36.71A4.65,4.65,0,0,1,33.27,37.81Z"/><rect class="cls-2" x="1" y="1" width="64.43" height="64.43"/></g></g></svg>