<svg xmlns="http://www.w3.org/2000/svg" viewBox="0 0 66.43 66.43"><defs><style>.cls-1{fill:none;stroke:#28b4a8;stroke-miterlimit:10;stroke-width:2px;}.cls-2{fill:#28b4a8;}</style></defs><title>Asset 2</title><g id="Layer_2" data-name="Layer 2"><g id="Layer_1-2" data-name="Layer 1"><rect class="cls-1" x="1" y="1" width="64.43" height="64.43"/><path class="cls-2" d="M46.2,9.1H19.89a3.22,3.22,0,0,0-3.22,3.22V56.74A3.22,3.22,0,0,0,19.89,60H46.2a3.22,3.22,0,0,0,3.22-3.22V12.32A3.22,3.22,0,0,0,46.2,9.1ZM18.28,17.2H47.81V50.83H18.28Zm1.61-6.48H46.2a1.61,1.61,0,0,1,1.61,1.61v3.8H18.28v-3.8A1.61,1.61,0,0,1,19.89,10.72ZM46.2,58.34H19.89a1.61,1.61,0,0,1-1.61-1.61V51.9H47.81v4.84A1.61,1.61,0,0,1,46.2,58.34Z"/><path class="cls-2" d="M33,52.62a2.64,2.64,0,1,0,2.64,2.64A2.65,2.65,0,0,0,33,52.62Zm0,4.21a1.57,1.57,0,1,1,1.57-1.57A1.57,1.57,0,0,1,33,56.83Z"/><path class="cls-2" d="M29.39,14.23H36.7a.54.54,0,1,0,0-1.08H29.39a.54.54,0,0,0,0,1.08Z"/><path class="cls-2" d="M27.45,14.23a.54.54,0,1,0-.38-.16A.54.54,0,0,0,27.45,14.23Z"/></g></g></svg>