<?xml version="1.0" encoding="utf-8"?>
<!-- Generator: Adobe Illustrator 21.0.2, SVG Export Plug-In . SVG Version: 6.00 Build 0)  -->
<svg version="1.1" id="Layer_1" xmlns="http://www.w3.org/2000/svg" xmlns:xlink="http://www.w3.org/1999/xlink" x="0px" y="0px"
	 viewBox="0 0 160 184.7" style="enable-background:new 0 0 160 184.7;" xml:space="preserve">
<style type="text/css">
	.st0{fill:#28B5A9;}
	.st1{font-family:'EncodeSansCondensed-Bold';}
	.st2{font-size:18px;}
	.st3{fill:none;stroke:#28B5A9;stroke-width:3;stroke-miterlimit:10;}
</style>
<title>acroyoga</title>
<g id="Layer_1-2">
	<path class="st0" d="M156,4v152H4V4H156 M160,0H0v160h160V0z"/>
	<text transform="matrix(1 0 0 1 43.67 180.33)" class="st0 st1 st2">A</text>
	<text transform="matrix(1 0 0 1 54.63 180.33)" class="st0 st1 st2">c</text>
	<text transform="matrix(1 0 0 1 61.65 180.33)" class="st0 st1 st2">r</text>
	<text transform="matrix(1 0 0 1 67.66 180.33)" class="st0 st1 st2">o</text>
	<text transform="matrix(1 0 0 1 76.46 180.33)" class="st0 st1 st2">y</text>
	<text transform="matrix(1 0 0 1 85.03 180.33)" class="st0 st1 st2">o</text>
	<text transform="matrix(1 0 0 1 94.11 180.33)" class="st0 st1 st2">ga</text>
</g>
<path class="st3" d="M53.2,143.5c2.9-6.6,8.4-6.6,13.6-7.6c-2.7-1.1-5.3-2.6-5.5-5.6c-0.1-2.6,0.1-5.3,0.8-7.9
	c0.9-4.2,2.2-8.3,3.4-12.5c0.6-2.4,1.4-4.8,2.4-7.1c1.9-3.9,2.6-8.3,2.2-12.6c-0.2-2.5,0.4-5.1,0.6-7.7c0-0.7-0.1-1.3-0.2-2
	c0.9-1.4,1.6-2.9,2.2-4.5c1.2-3.3,2.1-6.8,2.7-10.3c0.3-2.3-0.5-4.9-1.3-7.2c-0.2-0.5-2.3-0.9-3.2-0.5c-5,1.9-10,4-14.8,6.2
	c-1.3,0.7-2.3,1.8-2.8,3.2c-1.8,5.8-5.6,9.8-10.9,12.6c-2.9,1.5-5.4,3.5-4.6,7.5c0.3,1.7-1,2.4-2.5,2.2c-3.6-0.6-6.5,1.2-9.2,2.8
	c-2.4,1.4-3.8,0.6-5.3-1c3.7-3.3,7.2-6.6,11-9.6c6.1-4.8,10.2-11.2,14-17.9c0.5-0.9,0.4-2.1,0.9-3c0.9-1.5,1.9-2.9,3.1-4.2
	c1.1-1.2,2.4-2.3,3.7-3.2c5-3.2,10-6.5,15.1-9.5c1.3-0.8,2.1-1.4,2.3-3c0.3-2.2,0.6-4.4,1.1-6.6c-1.7,0.7-3.3,1.3-5,1.9
	c-2.3,0.8-3.8,2-2.8,4.8c0.4,0.8,0.1,1.9-0.7,2.3c-0.4,0.2-0.8,0.2-1.3,0.1c-4-0.8-6.6,1.7-9.8,3.2c-0.9,0.4-2.2,0.1-3.3,0.1
	l-0.4-1.2c4.5-4.2,9.3-8.1,13.6-12.5c3.7-3.8,6.9-8,10.4-12c0.6-0.7,1.2-1.5,1.9-2.1c1.9-1.7,4.4-2.5,6.5-1.4
	c1.3,0.7,2.5,2.9,2.7,4.6c0.6,5,0.7,10,1,15.2c3,0.2,6.1,0.5,9.3,0.6c6.7,0.2,12.5,3.5,18.4,6c1.6,0.7,2.5,3.4,3.2,5.3
	c1.2,3.6,5.6,7.4,9.3,7.4c1.4,0,2.2,0.3,2.4,1.9c0.3,1.1,0.8,2.2,1.4,3.2c0.1,0.3,0.3,0.7,0.2,0.9c-1.8,2.6-0.8,5.4-1,8.1
	c-0.2,0.9-0.7,1.7-1.5,2.2c-2.7,2-6.2,2.5-9.4,1.6c-1.7-0.6-3-2.4-4.9-3.9c-1.8,0.5-2.8,0-2.9-2.4c0-0.7,0.9-1.9,1.3-1.9
	c2.3,0.2,2.6-1.5,3.1-3.1c-0.2-0.1-0.5-0.2-0.7-0.2c-10.1,4.2-20.1,8.4-30.2,12.5c-1.9,0.6-3.3,2.3-3.4,4.3
	c-0.5,4.9-0.8,9.8,0.3,14.7c0.6,2.7,0.1,5.7-0.1,8.5c-0.3,5.2-0.8,10.3-1.3,16c2.8,0,5.5,0,8.2,0c1.6,0,3.3-0.3,4.9-0.4
	c3-0.2,6-0.3,9-0.4c5.6-0.5,11,2,14.1,6.6c0.3,0.5,1.1,1.1,1.5,1c0.7-0.2,1.3-0.7,1.6-1.4c0.5-1.7,1.4-1.8,2.9-1.7
	c1.2,0,2.4-0.3,3.6-0.7c0.3-0.1,0.7-0.3,0.9-0.2c2.2,1.1,4.5,2.1,6.8,2.9c4.6,1.3,4.5,4.6,4.2,8.3c-0.1,3.2-2.7,5.7-5.9,5.7
	c-3.4,0-6.7-0.1-9.7-2.2c-0.8-0.4-1.8-0.2-2.6,0.3c-2.3,3.2-5.7,3.9-9.2,4.1c-6,0.3-11.9,0.3-17.9,0.5c-3.5,0.1-7.1,0.6-10.6,0.7
	c-2.6,0.2-5.2,0-7.8-0.6c-4.2-1.1-7.5,1.7-11.3,1.9C58.8,143.9,56.2,143.6,53.2,143.5z M102.5,60.6c-2.7-2.1-5.1-3.8-7.5-5.6
	c-2.2-1.7-3.9-1.4-5.6,0.7c-1.5,1.9-3.1,3.8-4.5,5.7c-2.6,3.2-4,7.2-3.8,11.3C88.9,69.4,95.3,64.6,102.5,60.6z"/>
</svg>
