<?xml version="1.0" encoding="utf-8"?>
<!-- Generator: Adobe Illustrator 21.0.2, SVG Export Plug-In . SVG Version: 6.00 Build 0)  -->
<svg version="1.1" xmlns="http://www.w3.org/2000/svg" xmlns:xlink="http://www.w3.org/1999/xlink" x="0px" y="0px"
	 viewBox="0 0 160 183" style="enable-background:new 0 0 160 183;" xml:space="preserve">
<style type="text/css">
	.st0{fill:#28B5A9;}
	.st1{font-family:'EncodeSansCondensed-SemiBold';}
	.st2{font-size:18px;}
	.st3{display:none;}
	.st4{fill:none;stroke:#28B5A9;stroke-width:2;stroke-miterlimit:10;}
</style>
<g id="Layer_1">
	<g id="Layer_1_1_">
		<g>
			<g>
				<path class="st0" d="M156,4v152H4V4H156 M160,0H0v160h160V0L160,0z"/>
			</g>
		</g>
		<text transform="matrix(1 0 0 1 17.6665 181.333)" class="st0 st1 st2">Aerial Acrobatics</text>
	</g>
	<g id="guides" class="st3">
	</g>
	<g>
		<path class="st4" d="M75,4.5c-0.6,8.6-1.2,17-1.8,25.6c3,0.5,2,2.7,2,4.3c0,0.8-0.8,1.6-1.2,2.5c-0.2-0.1-0.4-0.1-0.6-0.2
			c0,0.7,0,1.4,0,2.1c2.3,1,2.6,4.5,0.7,6.8c6.8,5.5,7.7,13.6,9.1,21.4c0.6,3.3,0.8,6.6,1.2,10.1c0.6-0.5,1.1-0.8,1.5-1.2
			c0.2,0.1,0.3,0.1,0.5,0.2c-0.2,0.6-0.3,1.4-0.8,1.9c-1.1,1.1-1.3,2.3-1.1,3.7c0.6,3.6,1.3,7.2,1.9,10.8c4.6,0,8.6,0,12.9,0
			c-0.3-0.5-0.5-1-0.7-1.5c-0.7-1.7-1.5-3.3-2-5.1c-1.5-5.7,1.6-10,7.5-10.4c4.1-0.2,7.8,1,11,3.6c1.6,1.3,2.4,3,2.5,5.1
			c0,1.3,0,2.6,0,3.8c0,0.6,0.1,1.2,0.3,1.8c0.5,1.3,2.3,2.1,3.3,1.5c1.3-0.8,1-1.9,0.6-3.1c-0.1-0.3-0.3-0.5-0.6-1
			c1.8,0.3,2.8,1.2,3.1,2.8c0.3,1.8-0.8,2.8-2.5,3.5c4.1,2.2,7,5.3,8,10c2.4-1.2,2.5-3.3,3-5.8c0.4,2.8,0,4.9-2,6.4
			c-0.3,0.2-0.6,0.9-0.6,1.2c0.3,1.8,0.4,3.6-1.3,4.6c-1.9,1.1-3.6,0.2-5.5-0.9c5-0.1,5.7-0.6,4.8-3.4c-2.9-0.6-5.8-1.2-8.6-1.7
			c2.3,4.4,3,9-1.2,13.2c1.5-3.8,2.4-7.7-0.1-11.8c0,1.8,0.1,3.3,0,4.8c-0.2,2.5-2.4,4.5-4.8,4.7c-2.3,0.2-4.8-1.4-5.5-3.3
			c1,0.5,2.2,1.4,3.5,1.9c1.7,0.6,2.9-0.5,3.6-2c1.3-2.9-0.4-7.7-3.4-9.5c0,1.5-0.1,3,0,4.4c0.1,2.4,0.7,2.9,3,3.2
			c0,0.2,0,0.3-0.1,0.5c-0.8-0.1-1.8,0-2.2-0.5c-0.9-1-1.7-2.2-2.2-3.4c-0.6-1.5-0.7-3.1-1.2-4.6c-0.5-1.7-1.4-3.2-3.5-4.5
			c0.5,1.9,0.8,3.4,1.1,4.8c0.3,1.2,0.8,2.3,1.1,3.5c0.5,2.7-0.6,4.2-3.3,4.3c-1.3,0-2,0.6-2.9,1.4c-2.6,2.6-5.2,5.3-8.2,7.5
			c-2.2,1.5-4.9,2.3-7.5,3.1c-0.9,0.3-1.4,0.6-1.7,1.5c-1.8,5.3-4,10.5-7.4,15c-0.9,1.3-2,2.4-3.3,3.4c-2.2,1.7-4.4,1.6-6.1-0.6
			c-1.2-1.6-2.3-3.5-2.9-5.4c-1.2-3.7-2-7.5-3-11.3c-1.3-4.9-3.9-8.8-8-11.8c-5-3.6-10-7.2-15.8-9.5c-1.9-0.7-3.9-1-5.8-1.6
			c-1.9-0.7-3.9-1.4-5.7-2.4c-0.9-0.4-1.6-1.3-2.2-2.1c-0.4-0.6-0.3-1.5-0.4-2.2c0.7,0.1,1.4,0,2,0.2c1.1,0.4,2,1.1,3.1,1.3
			c1.1,0.3,2.3,0.2,3.5,0.1c0.7-0.1,1.3-0.7,1.9-1.1c1.4-0.8,2.3-0.5,2.9,1c0.3,0.7,0.5,1.3,0.8,2c0.4,0,0.7-0.2,1-0.1
			c3.7,1.2,7.4,2.3,11.1,3.6c2.7,0.9,5.7,1.6,7.4,4.3c0.1,0.2,0.5,0.3,0.8,0.3c1.6,0.1,3.1,0.2,4.9,0.3c-0.5-1.7,0-3.6-2.2-4.5
			c-0.3-0.1-0.7-1-0.6-1.4c1.8-7,0.2-14,0.6-21c0.4-8.1,1.2-16.2,3.7-23.9c1.2-3.7,2.5-7.3,5.8-9.7c0.2-0.2,0.2-1-0.1-1.4
			c-0.5-0.8-1-4.3-0.5-5c0.4-0.5,1-0.8,1.6-1.2c0-0.6,0-1.3,0-2.1c-0.1,0.1-0.2,0.1-0.3,0.2c-0.5-0.7-1.4-1.4-1.4-2.1
			c0.1-1.5-1.2-3.5,1.3-4.4c0.3-0.1,0.5-1,0.5-1.5c-0.3-5.7-0.6-11.3-1-17c-0.1-2.4-0.3-4.7-0.5-7.2C71.8,4.5,73.3,4.5,75,4.5z
			 M82.1,98.1c-0.4-2.5-0.9-5.2-1.3-8c-0.2-1.6-0.3-3.3-0.7-4.9c-0.7-3.3,0.1-6.1,1.7-8.9c0.5-0.9,0.9-2.2,0.8-3.2
			c-0.3-3.3-0.6-6.7-1.4-9.9c-1.1-4.3-2.5-8.5-4.2-12.6c-2-4.7-6.7-4.5-8.8,0c-1,2-1.9,4.1-2.6,6.2C62.8,66,62.1,75.4,62.1,85
			c0,3.6,0.3,7.2,0.4,10.2c2,0.9,4.1,1.2,4.9,2.3c1.8,2.4,3.9,2.3,6.3,2C76.6,99.1,79.4,98.6,82.1,98.1z M81.3,105.1
			c-0.6,0-0.9,0-1.2,0c-3.8-0.5-7.6-0.8-11.3-1.6c-1.7-0.4-3.3-1.1-4.9,0c0.1,3.4,0.1,3.4,3.2,4.1c1.5,0.3,3.2,1.4,4.5,1.1
			c3-0.7,5.8-0.8,8.8,0.3C80.8,107.7,81,106.5,81.3,105.1z M127.8,103.9c-0.8-4.4-6.6-8.3-11.5-7.8
			C117.4,100.5,123.3,104.5,127.8,103.9z M81.8,109.3c4.2,1.7,7.5,0.2,9.7-6c-2.8-0.1-5.5,0-8,1.4c-0.4,0.2-0.8,0.6-0.9,0.9
			C82.2,106.8,82,108.1,81.8,109.3z M69.4,128.1c0.2-0.1,0.4-0.2,0.6-0.2c0.1-0.5,0.2-0.9,0.3-1.4c0.7-2.3,1.3-4.5-1.6-5.8
			c-0.2-0.1-0.4-0.5-0.6-0.7c-0.8-0.5-1.6-1-2.4-1.5c-0.2,0.2-0.4,0.4-0.6,0.6C66.6,122,68,125.1,69.4,128.1z M70.7,35.4
			c0.1,0.1,0.2,0.2,0.4,0.3c1-1.7,2-1.3,3.2,0.2c0-1.9,0-3.3,0-4.7C73,32.9,72,32,70.7,30.9C70.7,32.7,70.7,34,70.7,35.4z
			 M74.2,43.4c0-1.1,0-2.3,0-3.5c-1.2,1.6-2.3,0.7-3.5-0.2c0,1.5,0,2.7,0,3.7C71.9,43.4,73.1,43.4,74.2,43.4z M109.5,95.9
			c-0.1,0.2-0.2,0.4-0.4,0.5c2,1.4,4.1,2.8,6.1,4.2c0.1-0.2,0.3-0.4,0.4-0.6C113.6,98.6,111.5,97.2,109.5,95.9z M110.9,78.6
			c1.3,1.1,2.8,2.3,4.1,3.3C114.6,79.8,113.4,78.9,110.9,78.6z M114.3,84.7c-0.2,0-0.4,0.1-0.6,0.1c0.5,1.5,1,3.1,1.5,4.6
			c0.2-0.1,0.4-0.1,0.5-0.2C115.3,87.7,114.8,86.2,114.3,84.7z"/>
	</g>
</g>
<g id="Layer_2">
</g>
</svg>
