<svg id="Layer_1" data-name="Layer 1" xmlns="http://www.w3.org/2000/svg" viewBox="0 0 160 184.7"><defs><style>.cls-1,.cls-2{fill:#28b5a9;}.cls-2{isolation:isolate;font-size:18px;font-family:EncodeSansCondensed-SemiBold, Encode Sans Condensed;font-weight:700;}.cls-3{letter-spacing:0em;}.cls-4{letter-spacing:-0.01em;}.cls-5{fill:none;stroke:#28b5a9;stroke-miterlimit:10;stroke-width:2px;}</style></defs><title>circus</title><g id="Layer_1-2" data-name="Layer 1"><path class="cls-1" d="M156,4V156H4V4H156m4-4H0V160H160V0Z"/><text class="cls-2" transform="translate(56.67 180.33)"><tspan class="cls-3">C</tspan><tspan x="9.3" y="0">i</tspan><tspan class="cls-4" x="13.43" y="0">r</tspan><tspan x="19.44" y="0">cus</tspan></text></g><path class="cls-5" d="M81.13,103.32c-3.4,5.58-6.44,11.41-10.28,16.65A43.81,43.81,0,0,1,51.14,135c-.88.34-2.07-.11-3.12-.2.7-.68,1.29-1.77,2.12-2,5.32-1.42,7.31-4.78,7.28-10.22-.05-9.57.4-19.13.64-28.7,0-.58,0-1.16,0-2l9.56.76v27.17c.93-1.09,1.56-1.74,2.1-2.46a50.35,50.35,0,0,0,9.46-19.8A9.47,9.47,0,0,1,80.7,95a9.77,9.77,0,0,1,1.52,2.58c1.95,8.87,6.36,16.37,12.82,23.66V92.63l9.55-.81c0,1.4,0,2.57,0,3.75.39,10.16.94,20.31,1.12,30.47.07,3.67,1.84,5.31,4.92,6.45,1.12.41,2,1.53,3,2.32-1.31,0-2.81.4-3.9-.1-13.22-5.94-22-16.12-27.71-29.24C81.62,104.65,81.32,103.81,81.13,103.32Z"/><path class="cls-5" d="M115.58,80.5l7.76-2.06c.39,3.21.59,5.95-2,8.18-.73.61-.95,2.07-1,3.17A115.84,115.84,0,0,0,123.94,128c.58,2.12,0,3.2-1.79,3.91-2.47,1-5,1.86-7.42,2.78-3.17-8-4.93-31.65-3.38-43.67l5.93-2.63Z"/><path class="cls-5" d="M37.18,78.05c2.61,1.12,5.65,1.58,7.08,3.35.94,1.15-.45,4.2-.86,6.83a26,26,0,0,0,4.17,1.52c2,.43,2.66,1.28,2.8,3.38.84,13.13-.45,26.08-2.82,39-.14.77-.39,1.52-.63,2.48-1.19-.28-2.25-.47-3.28-.78-6.61-2-7-2.46-5.44-8.93A115,115,0,0,0,41,90.15a5.71,5.71,0,0,0-1.85-3.58C36.49,84.31,36.84,81.54,37.18,78.05Z"/><path class="cls-5" d="M80.72,36.77C80.62,51.47,83.9,66.3,86,81.46H75C77.27,63.57,81.14,46,79.92,28.4l17.85-1.11.75.49c-3.5,2.32-1.6,4.59-.52,6.59-3,.35-5.8.63-8.6,1S84,36.24,80.72,36.77Z"/><path class="cls-5" d="M81.84,43.59c4.33,6.65,8.13,13,12.4,18.91s8.95,11.46,13.9,17.74c-3.52.27-6.58.57-9.65.69-.45,0-1.14-.73-1.38-1.27Q89.52,62.46,82,45.22A7.6,7.6,0,0,1,81.84,43.59Z"/><path class="cls-5" d="M53.43,80.3,78.86,44.63A23.25,23.25,0,0,1,78,47.13c-4.61,10.67-9.28,21.32-13.85,32A2.61,2.61,0,0,1,61,81C58.49,80.67,55.93,80.52,53.43,80.3Z"/><path class="cls-5" d="M36.5,75.36c14.55-9.8,28.63-18.9,40.55-31-.39.56-.75,1.13-1.17,1.67C66.66,58,55.32,67.72,44,77.53a3.07,3.07,0,0,1-2.58.4A41.28,41.28,0,0,1,36.5,75.36Z"/><path class="cls-5" d="M83.94,44.85C95.76,56.69,109.7,65.73,123.47,75c-3.55,3.84-5.28,3.95-8.76.93-10-8.7-20-17.45-28.25-28C85.63,46.95,84.78,45.9,83.94,44.85Z"/><path class="cls-5" d="M76.71,83.82c2.41,1.66,6.13-2.2,7.23,2.23.88,3.55-1,5.78-3.81,5.7C77.16,91.68,76.23,89.79,76.71,83.82Z"/><path class="cls-5" d="M74.92,84c-.92,2.73-1.34,5-2.5,6.83-.4.62-2.92.54-4-.07-2.69-1.53-1.64-4.28-1.75-6.76Z"/><path class="cls-5" d="M105.65,82.45,113.48,81c.15,2.9,1,5.91-2,7.63-1.07.62-3.66.7-4,.15C106.53,86.91,106.25,84.69,105.65,82.45Z"/><path class="cls-5" d="M56.78,82.67l8,1c-.6,2.26-.83,4.5-1.85,6.28-.38.66-2.89.75-4,.21C55.87,88.63,56.82,85.66,56.78,82.67Z"/><path class="cls-5" d="M95.49,83.64l8.12-.93c.22,2.73.93,5.47-1.64,7.16-1,.68-3.63.91-4,.36C96.83,88.42,96.37,86.15,95.49,83.64Z"/><path class="cls-5" d="M85.67,84h8c.17,2.34,1.07,5-1.44,6.63-1.08.69-3.8.81-4.2.18C86.89,89,86.53,86.73,85.67,84Z"/><path class="cls-5" d="M47.1,81l7.79,1.43c-.67,2.27-1,4.54-2.09,6.44-.27.49-2.95.29-4-.4C46.09,86.69,46.84,83.83,47.1,81Z"/></svg>