<?xml version="1.0" encoding="utf-8"?>
<!-- Generator: Adobe Illustrator 21.0.2, SVG Export Plug-In . SVG Version: 6.00 Build 0)  -->
<svg version="1.1" xmlns="http://www.w3.org/2000/svg" xmlns:xlink="http://www.w3.org/1999/xlink" x="0px" y="0px"
	 viewBox="0 0 160 183" style="enable-background:new 0 0 160 183;" xml:space="preserve">
<style type="text/css">
	.st0{fill:none;stroke:#28B5A9;stroke-width:3;stroke-miterlimit:10;}
	.st1{fill:#28B5A9;}
	.st2{font-family:'EncodeSansCondensed-SemiBold';}
	.st3{font-size:18px;}
	.st4{display:none;}
</style>
<g id="Layer_1">
	<g id="Layer_2">
	</g>
	<g>
		<path class="st0" d="M37.7,17.2c2,1.4,1.2,3.5,2.1,5c0.8-1.6,1.6-3.1,2.4-4.6c0.1,0,0.2,0.1,0.4,0.1c0,0.4,0,0.9-0.1,1.3
			c-0.5,1.9-0.9,3.6-0.1,5.6c0.4,1,0.3,2.2,0.3,3.3c0,1,0.3,1.5,1.2,1.6c3,0.5,6,0.9,9,1.4c1.5,0.3,3,0.8,4.4,1.3
			c3.9,1.5,7.8,3.2,11.7,4.7c0.4,0.1,1-0.1,1.4-0.4c3.1-2.4,5.6-5.3,8-8.4c1.4-1.8,3.1-3.3,5.1-4.4c1.4-0.8,2.6-2,3.8-3
			c0.4-0.3,0.7-0.7,1-1.1c2-2,3.8-2.1,6-0.3c1.2,1,2.2,2.2,3.3,3.3c1.2,1.2,2.5,2.4,3.7,3.6c0.2,0.2,0.3,0.6,0.4,0.8
			c-0.3,0-0.7,0.1-1,0.1c-0.5-0.1-0.9-0.4-1.4-0.5c0.5,0.8,1.1,1.7,1.6,2.5c-0.2,0.2-0.2,0.3-0.3,0.3c-1.4-0.8-2.9-1.4-4.2-2.4
			c-0.8-0.6-1.3-1.4-2.4-1.4c-1.9,0-3.2-0.9-3.3-3.1c-0.1,0-0.2,0.1-0.4,0.1c-0.3,0.4-0.6,0.7-0.8,1.1c-1.5,2.2-2.9,4.4-4.5,6.5
			c-1.3,1.6-2.8,3-4.3,4.5c-0.5,0.5-1,1-1.7,1.7c1.5,0.1,2.7,0.2,3.8,0.4c0.9,0.2,1.7,0.6,2.5,1c1.6,0.7,3.2,1.3,4.7,2.1
			c1.2,0.7,2.5,1.4,3.3,2.4c3.5,4.6,5.6,10,7,15.5c0.6,2.2,1.5,4.1,3.3,5.6c5.6,4.5,11,9.3,15.4,15c1.7,2.2,3.2,4.6,3.5,7.4
			c0.3,2.3-0.7,3.8-2.9,4.4c-6.6,1.8-13.4,2.5-20.1,3.5c-2.5,0.4-4.9,1.3-7.3,2c-1.4,0.4-2.7,0.7-4,1.2c-0.5,0.2-1.1,0.7-1.4,1.2
			c-0.8,1.5-1.7,2.9-2.2,4.5c-0.7,1.9-1.2,3.9-1.5,5.9c-0.7,4.7-1.2,9.4-1.7,14.2c-0.1,0.9,0,1.8,0.2,2.7c0.8,3.5,0.3,6.8-0.9,10.2
			c-0.7,1.9-1.2,3.8-1.9,5.7c-0.4,1-1,2-1.7,2.9c-0.7,1-1.8,1.1-2.9,0.7c-1.1-0.4-1.1-1.2-1-2.1c0.2-1.8,0.5-3.7,0.6-5.5
			c0.2-2.1,0.4-4.2,0.4-6.3c0-1.7,0.1-3.2,1.2-4.6c1-1.3,1.1-2.9,0.9-4.7c-0.6-4.1-1.2-8.2-1.5-12.3c-0.2-3.2,0.3-6.3,1.8-9.3
			c0.4-0.8,0.6-1.7,0.9-2.6c-1.3,0-2.4,0.1-3.5,0c-0.6-0.1-1.1-0.7-1.6-1.1c0.4-0.5,0.6-1.1,1.1-1.4c1.5-0.9,3.1-1.6,4.7-2.5
			c0.4-0.2,1-0.7,1-1.1c0.3-5.7,0.6-11.4,0.8-17.1c0.1-2.4-0.5-4.9-0.5-7.3c-0.1-2.5,0.5-4.8,2.4-6.6c0.2-0.2,0.3-0.7,0.3-1.1
			c0.1-1.1,0.3-2.1,0.3-3.2c0-0.6-0.4-1.5-0.8-1.6c-2.5-0.6-5.1-1.5-7.8-0.2c-0.6,0.3-1.5,0.2-2.3,0.3c0.3,0.4,0.5,0.8,0.8,1.1
			c0.5,0.8,0.8,1.5-0.1,2.3c-0.2,0.1-0.2,0.4-0.3,0.6c-1.5,3.9-4.9,6.1-9.1,5.5c-0.9-0.1-1.7-0.2-2.5-0.4c-2.9-0.7-4.6-3.1-4.5-6.1
			c0-0.4-0.3-0.8-0.5-1.1c-0.6-1.1-1.7-2.1-0.2-3.5c0.5-0.5,0.5-1.6,0.6-2.5c0.1-1.5,1.1-1.9,2.3-2.3c1.2-0.4,2.3-1,3.2-1.8
			c0.6-0.5,0.8-1.5,1.1-2.3c0.5-1.1,1-2.1,1.7-3.4c-1.8-0.7-3.8-1.7-5.9-2.2c-2.9-0.8-5.7-1.6-8.4-3.1c-2.5-1.4-5.2-2.6-7.8-3.7
			c-1.3-0.6-2.1-1.4-2.2-2.9c-0.4-3.3-1-6.6-1.6-9.9C37.8,18.4,37.8,18,37.7,17.2z M94.5,76.6c0,0.1-0.1,0.3-0.2,0.4
			c-1.4,4.2-2.8,8.4-4.2,12.6c-0.1,0.2-0.1,0.7,0,0.7c0.3,0.1,0.7,0.2,1,0.1c2.2-1,4.4-1.9,6.5-3c2.9-1.5,5.8-3.1,8.8-4.8
			C102.6,80.8,98.6,78.7,94.5,76.6z"/>
	</g>
	<g id="Layer_1_2_">
		<g id="Layer_1_1_">
			<g>
				<g>
					<path class="st1" d="M156,4v152H4V4H156 M160,0H0v160h160V0L160,0z"/>
				</g>
			</g>
			<text id="Dance" transform="matrix(1 0 0 1 57.6665 181.333)" class="st1 st2 st3">Dance</text>
		</g>
		<g id="guides" class="st4">
		</g>
	</g>
</g>
<g id="Layer_2_1_">
</g>
</svg>
