<svg id="Layer_1" data-name="Layer 1" xmlns="http://www.w3.org/2000/svg" viewBox="0 0 160 185.7"><defs><style>.cls-1,.cls-2{fill:#28b5a9;}.cls-2{isolation:isolate;font-size:18px;font-family:EncodeSansCondensed-SemiBold, Encode Sans Condensed;font-weight:700;}.cls-3{letter-spacing:-0.03em;}.cls-4{letter-spacing:0em;}.cls-10,.cls-11,.cls-12,.cls-13,.cls-14,.cls-5,.cls-6,.cls-7,.cls-8,.cls-9{fill:none;stroke:#28b5a9;stroke-linecap:round;}.cls-5{stroke-width:3.16px;}.cls-6{stroke-width:3.08px;}.cls-7{stroke-width:3.34px;}.cls-8{stroke-width:2.28px;}.cls-9{stroke-width:2.33px;}.cls-10{stroke-width:3.99px;}.cls-11{stroke-width:3.04px;}.cls-12{stroke-width:2.62px;}.cls-13{stroke-width:2.98px;}.cls-14{stroke-width:3.73px;}</style></defs><title>read</title><g id="Layer_1-2" data-name="Layer 1"><g id="Layer_1-3" data-name="Layer 1"><path class="cls-1" d="M156,4V156H4V4H156m4-4H0V160H160V0Z"/><text class="cls-2" transform="translate(61.67 181.33)"><tspan class="cls-3">R</tspan><tspan class="cls-4" x="10.38" y="0">e</tspan><tspan x="18.7" y="0">ad</tspan></text></g></g><g id="svg_1" data-name="svg 1"><path id="svg_2" data-name="svg 2" class="cls-1" d="M135.84,85.89c1.14-.07.51,1.1,1.64,1,.44.86-1.21,1.56-1,3.48l-.62-.29-.51.46c-.76-.3.17-1.77.09-2.54l.33-.94-.78-.61.06-.35.5.27Z"/><path id="svg_3" data-name="svg 3" class="cls-1" d="M136,90.86l.51-.46a67,67,0,0,1,5.84,6.17c-.07,1.83-1,2.36-1.12,4.19-11-1-21.18-1.55-31.81-2.06-3.35-.16-7.14-.67-10.18-.37-4.5.45-6.61,3.26-11.88,3-2.57-.13-4.26-1.42-7-1.63-3.34-.25-7.66,1.31-11.33,2-10.94,2-22.39,4.3-32.41,7.34-2.25-3.32-3.16-7.34-4.59-11.07-4.16-10.81-8.84-22-13.07-33.07-.11-1.2,1.25-.29,1.61-.81l.5.27.56-.08c5.2,13.54,10.66,26.9,16.18,40.22.34-.7,0-2.41.8-2.42l.32.61.68-.06c.19,1.64-1.27,3.2-1,3.48,14.14-4,25.74-11.73,45.32-7.94.43-4.13,2.88-5.36,4.65-7.58-.56-.13-1.38-.07-1.35-.61l.27-.5-.08-.56c.29.12.36-.08.42-.29l.56-.34v-.66c1.36.29,1.14,1.69,2.16,2.22l.34.56h.66c-.51,1.49-2,1.61-2.41,3.22,1.69.2,2.69-.58,4.73.12,1.33.63,1,2.44,1.55,3.57,8.46-7.31,25.2-2.69,40.31-.43-.05-2.13-.84-3.75-.33-6.28Z"/><path id="svg_4" data-name="svg 4" class="cls-1" d="M21.28,63.64l-.68.06c.13-.56.07-1.38.61-1.35l.32.61.68-.06c-.13.56-.07,1.38-.61,1.35Z"/><g id="svg_5" data-name="svg 5"><path id="svg_6" data-name="svg 6" class="cls-5" d="M135.88,90.11l.11.75"/><path id="svg_7" data-name="svg 7" class="cls-6" d="M21,64.33a4.6,4.6,0,0,1,.25-.69"/><path id="svg_8" data-name="svg 8" class="cls-7" d="M21.52,63c.61-1.7,1.28-3.89,3.25-4.39"/><path id="svg_9" data-name="svg 9" class="cls-8" d="M24.78,58.57c12.41-5.36,30-14.25,41-1.09"/><path id="svg_10" data-name="svg 10" class="cls-9" d="M65.74,57.48c9.92-11.37,25.46-2,38.13-2.56,10.47,10.57,21.56,20.67,31.7,31.47"/><path id="svg_11" data-name="svg 11" class="cls-10" d="M90.86,90.37C103,78.78,121.07,87,135.79,87.08"/><path id="svg_12" data-name="svg 12" class="cls-11" d="M65.74,57.48C73.45,67.6,80.6,78.18,88.37,88.25"/><path id="svg_13" data-name="svg 13" class="cls-12" d="M24.78,58.57c5.83,12.36,10.16,25.54,15.88,38"/><path id="svg_14" data-name="svg 14" class="cls-13" d="M40.65,96.57c15.25-3.89,30.71-12.28,46.82-7.12"/><path id="svg_15" data-name="svg 15" class="cls-14" d="M40.65,96.57c-.57,2-1.07,4.08-1.76,6.08"/></g></g></svg>