<svg id="Layer_1" data-name="Layer 1" xmlns="http://www.w3.org/2000/svg" viewBox="0 0 160 185.7"><defs><style>.cls-1,.cls-2{fill:#28b5a9;}.cls-2{isolation:isolate;font-size:18px;font-family:EncodeSansCondensed-SemiBold, Encode Sans Condensed;font-weight:700;}.cls-3{letter-spacing:-0.05em;}.cls-4{letter-spacing:0em;}.cls-5{letter-spacing:0.01em;}.cls-6{letter-spacing:0.01em;}.cls-7{letter-spacing:-0.03em;}.cls-8{fill:none;stroke:#28b5a9;stroke-width:3px;}</style></defs><title>shortfilms</title><g id="Layer_1-2" data-name="Layer 1"><g id="Layer_1-3" data-name="Layer 1"><path class="cls-1" d="M156,4V156H4V4H156m4-4H0V160H160V0Z"/><text class="cls-2" transform="translate(18.67 181.33)"><tspan class="cls-3">W</tspan><tspan x="16.4" y="0">a</tspan><tspan class="cls-4" x="24.83" y="0">t</tspan><tspan class="cls-5" x="31.03" y="0">c</tspan><tspan x="38.15" y="0">h sho</tspan><tspan class="cls-6" x="76.52" y="0">r</tspan><tspan class="cls-7" x="82.88" y="0">t</tspan><tspan x="88.67" y="0">films</tspan></text></g></g><path class="cls-8" d="M145.29,134.72H105.2l1.72-1a64.52,64.52,0,0,0,16.14-13.81,2.38,2.38,0,0,1,1.61-.73c6.87,0,13.75,0,20.62,0Z"/><path class="cls-8" d="M128.11,80.1A54.7,54.7,0,1,1,74.9,25.3,54.7,54.7,0,0,1,128.11,80.1Zm-43-35.2a11.68,11.68,0,1,0-11.8,11.62A11.68,11.68,0,0,0,85.1,44.9ZM73.37,126.83a11.68,11.68,0,1,0-11.63-11.67A11.68,11.68,0,0,0,73.37,126.83ZM92.18,62.27A11.68,11.68,0,1,0,104,50.71,11.75,11.75,0,0,0,92.18,62.27Zm0,35.28a11.68,11.68,0,1,0,11.65-11.69A11.76,11.76,0,0,0,92.18,97.55ZM54.67,62.46A11.68,11.68,0,1,0,42.88,74.12,11.78,11.78,0,0,0,54.67,62.46Zm0,35.1a11.68,11.68,0,1,0-11.61,11.73A11.78,11.78,0,0,0,54.67,97.56Z"/></svg>