<?xml version="1.0" encoding="utf-8"?>
<!-- Generator: Adobe Illustrator 21.0.2, SVG Export Plug-In . SVG Version: 6.00 Build 0)  -->
<svg version="1.1" xmlns="http://www.w3.org/2000/svg" xmlns:xlink="http://www.w3.org/1999/xlink" x="0px" y="0px"
	 viewBox="0 0 160 185.7" style="enable-background:new 0 0 160 185.7;" xml:space="preserve">
<style type="text/css">
	.st0{fill:#28B5A9;}
	.st1{font-family:'EncodeSansCondensed-Bold';}
	.st2{font-size:18px;}
	.st3{fill:none;stroke:#28B5A9;stroke-width:3;stroke-miterlimit:10;}
	.st4{display:none;}
</style>
<g id="Layer_1">
	<title>shortfilms</title>
	<g id="Layer_1-2">
		<g id="Layer_1-3">
			<path class="st0" d="M156,4v152H4V4H156 M160,0H0v160h160V0z"/>
		</g>
	</g>
	<text transform="matrix(1 0 0 1 16.4438 182)" class="st0 st1 st2">Go to the theater</text>
	<g>
		<path class="st3" d="M74.7,77.1c0.1-10,0.6-19.9,3-29.6c1.1-4.7,1.7-4.8,5.7-2.2c3.9,2.6,7.7,5.4,11.8,7.8
			c13.1,7.5,27.1,8.9,41.7,5.7c2.6-0.6,5.3-1.1,8-1.6c2.5-0.4,3.1,0,2.7,2.5c-0.8,4.4-1.6,8.8-2.9,13.1
			c-4.4,14.8-10.5,28.9-19.5,41.7c-3.1,4.4-6.6,8.4-10.9,11.7c-3.7,2.8-7.8,4.9-12.6,5.1c-7.2,0.4-12.7-2.9-16.8-8.6
			c-4.2-5.8-6.2-12.4-7.7-19.3C75.2,94.7,74.6,85.9,74.7,77.1z M97.9,86.5c0.1,0.1,0.2,0.3,0.3,0.4c-1.1,1-2.3,1.9-3.2,3.1
			c-0.4,0.6-0.6,1.8-0.3,2.5c0.3,0.6,1.5,1.2,2.2,1.1c0.7-0.1,1.6-1,1.8-1.7c0.5-1.7,0.3-3.6,0.9-5.3c0.6-1.8-0.1-3.2-0.8-4.7
			c-2.3-5.2-9.9-7-13.6-6c-2.4,0.6-3.3,2.6-1.8,4.6c1.1,1.4,2.5,2.7,4,3.7C90.6,86.2,94.1,86.8,97.9,86.5z M120.9,91.8
			c4.1,0,6.7-0.7,8.3-1.9c1.9-1.4,2-3.4,0.1-4.9c-0.5-0.4-1-0.7-1.5-1c-5.1-2.6-10.6-1.7-14.6,2.2c-1.5,1.5-1.5,2.2,0.4,3.3
			C116.2,91.2,119,91.8,120.9,91.8z M111.1,119.5c-0.9-5.1-5.5-10.1-9.7-10.9c-4.5-0.9-10.7,2-13.3,6.2
			C96.5,112.9,104.1,114.4,111.1,119.5z M120.4,73.7c6.6,0.7,10.2,4.7,12.7,10.2c0-3.4-0.7-6.5-2.7-9.2
			C127.9,71.2,123.7,70.8,120.4,73.7z M82.3,73.3c4.5-4.1,9.5-6.2,15.6-4.2c-1.5-3.9-4.5-5.3-8.1-3.7C86.3,67,84.2,70,82.3,73.3z"/>
		<path class="st3" d="M81.8,39.8c-4.4-0.3-6,0.7-7.2,4.6c-0.9,2.8-1.4,5.6-2.2,8.6c-3.8-0.1-7.8-0.7-11,2.4c-1,0.9-1.7,2.1-2.3,3.3
			c7.1-2.7,9.5-3.2,13-2.4c-0.1,1-0.2,2.1-0.3,3.1c-0.1,1.1-0.3,2.1-0.4,3.2c-1,0.3-2,0.5-2.9,0.8c-4.3,1.3-7,4.1-8.2,8.4
			c-0.4,1.3,0.1,1.8,1.3,2.1c2.6,0.5,5-0.1,7.5-0.9c0.5-0.2,1-0.4,1.7-0.6c0,0.4,0.1,0.7,0.1,1c0.2,6.5,0.4,13,0.7,19.5
			c0,1-0.3,1.4-1.1,1.9c-8.7,4.8-18,6.6-27.9,4.6c0,0.1-0.1,0.2,0,0.2c3.8,3.9,8.1,6.8,13.5,8c5.9,1.3,10.9-0.6,14.9-5
			c0.5-0.5,0.9-1,1.4-1.6c0,0,0.1,0,0.1,0c1,3.7,2,7.4,2.8,11.1c0.1,0.5-0.3,1.2-0.7,1.6c-5.3,5.4-13.2,6.9-20.4,4
			c-6.3-2.6-11.3-7-15.6-12.1C28.4,93.7,21.3,80.1,15.7,65.6c-1.8-4.7-3.1-9.6-4.4-14.5c-0.7-2.8,0-3.4,2.9-3.1
			c4.1,0.5,8.1,1.1,12.2,1.5c16,1.6,30.1-3.1,42.5-13.1c2.4-1.9,4.7-3.8,7.2-5.6c1.7-1.2,2.3-1.1,3.1,1C80.2,34.3,80.9,37,81.8,39.8
			z M37.7,81.4c0-0.1,0.1-0.3,0.1-0.4c2.8,0,5.7-0.7,8.1-2.1c0.7-0.4,1.5-0.9,2-1.6c0.3-0.4,0.3-1.4,0-1.8c-3.7-4.5-12.4-5-16.7-1.1
			c-1.9,1.7-1.9,3.9,0.4,5C33.5,80.4,35.7,80.8,37.7,81.4z M42.6,63.6c-4.4-2.8-8.2-3-11.7-0.9c-3.3,2-6,6.8-5.8,10.5
			C29.1,66.8,34.8,63.6,42.6,63.6z"/>
		<path class="st3" d="M97.9,86.5c-3.7,0.3-7.3-0.3-10.4-2.3c-1.5-1-2.9-2.2-4-3.7c-1.5-2-0.6-4,1.8-4.6c3.7-0.9,11.3,0.8,13.6,6
			c0.7,1.5,1.4,2.9,0.8,4.7c-0.5,1.7-0.4,3.5-0.9,5.3c-0.2,0.7-1.1,1.6-1.8,1.7c-0.7,0.1-1.9-0.5-2.2-1.1c-0.3-0.6-0.2-1.9,0.3-2.5
			c0.9-1.2,2.1-2.1,3.2-3.1C98.1,86.7,98,86.6,97.9,86.5z"/>
		<path class="st3" d="M120.9,91.8c-1.9,0-4.7-0.6-7.3-2.2c-1.9-1.1-1.9-1.8-0.4-3.3c4.1-4,9.5-4.8,14.6-2.2c0.5,0.3,1,0.6,1.5,1
			c1.8,1.5,1.8,3.4-0.1,4.9C127.7,91.1,125.1,91.8,120.9,91.8z"/>
		<path class="st3" d="M111.1,119.5c-7.1-5.1-14.7-6.6-23-4.7c2.7-4.2,8.8-7.1,13.3-6.2C105.7,109.4,110.2,114.4,111.1,119.5z"/>
		<path class="st3" d="M120.4,73.7c3.3-2.9,7.5-2.5,10,1c2,2.7,2.6,5.8,2.7,9.2C130.6,78.4,127,74.3,120.4,73.7z"/>
		<path class="st3" d="M82.3,73.3c1.8-3.3,3.9-6.3,7.5-7.9c3.6-1.6,6.6-0.2,8.1,3.7C91.8,67.1,86.8,69.2,82.3,73.3z"/>
		<path class="st3" d="M37.7,81.4c-2-0.6-4.2-1-6.1-1.9c-2.3-1.1-2.4-3.3-0.4-5c4.4-3.9,13-3.4,16.7,1.1c0.3,0.4,0.3,1.4,0,1.8
			c-0.5,0.7-1.3,1.2-2,1.6c-2.3,1.3-5.3,2.1-8.1,2.1C37.8,81.2,37.8,81.3,37.7,81.4z"/>
		<path class="st3" d="M42.6,63.6c-7.8,0-13.5,3.2-17.5,9.5c-0.2-3.7,2.4-8.5,5.8-10.5C34.3,60.6,38.2,60.8,42.6,63.6z"/>
	</g>
</g>
<g id="Layer_2" class="st4">
</g>
</svg>
