<?xml version="1.0" encoding="utf-8"?>
<!-- Generator: Adobe Illustrator 21.0.2, SVG Export Plug-In . SVG Version: 6.00 Build 0)  -->
<svg version="1.1" id="Layer_1" xmlns="http://www.w3.org/2000/svg" xmlns:xlink="http://www.w3.org/1999/xlink" x="0px" y="0px"
	 viewBox="0 0 160 183" style="enable-background:new 0 0 160 183;" xml:space="preserve">
<style type="text/css">
	.st0{fill:#28B5A9;}
	.st1{font-family:'EncodeSansCondensed-SemiBold';}
	.st2{font-size:18px;}
	.st3{display:none;}
	.st4{fill:none;stroke:#28B5A9;stroke-width:2;stroke-miterlimit:10;}
</style>
<g id="Layer_1_2_">
	<g id="Layer_1_1_">
		<g>
			<g>
				<path class="st0" d="M156,4v152H4V4H156 M160,0H0v160h160V0L160,0z"/>
			</g>
		</g>
		<text transform="matrix(1 0 0 1 56.6665 181.333)" class="st0 st1 st2">Travel</text>
	</g>
	<g id="guides" class="st3">
	</g>
	<g>
		<path class="st4" d="M36.8,121.9c1.2-2,2-3.4,3-5.2c-7.1-4-14.1-8-21.5-12.2c4.2-2.9,7.2-6.9,13.3-5.3c5.6,1.4,11.5,1.5,17.3,2.1
			c1,0.1,2.5-0.2,3.2-0.9c7.2-7.2,14.5-14.4,21.5-21.9c5-5.4,4.8-9.6-1.3-13.8c-5.7-4-11.9-7.3-18.3-10c-10.5-4.4-21.3-8.2-32-12.2
			c-1-0.4-2-0.7-3.1-1.1c3.6-5.1,7.5-8.8,14.3-6.9c2.1,0.6,4.4,0.3,6.4,0.9c4.8,1.5,8.3-0.1,11.1-3.8c0.7-0.9,1.7-1.7,2.5-2.5
			c1.5-1.4,3.2-1.9,4.8-0.2c1.5,1.5,2.1,3.3,0.3,5.1c-0.9,1-1.8,2.1-3,3.5c5.2,1,9.8,1.9,14.4,2.6c0.8,0.1,1.9-0.7,2.6-1.4
			c1.9-1.9,3.5-4.1,5.4-6c1.5-1.5,3.6-2.5,5.4-0.7c1.8,1.7,1.3,3.7,0,5.6c-0.8,1.1-1.7,2.2-3,3.8c5.8,0.8,11.3,1.1,16.5,2.3
			c5.3,1.2,8.8-0.5,12.4-4.2c5.1-5.3,10.9-10.1,16.5-14.9c2-1.7,4.5-3.1,7-3.8c1.4-0.4,3.8,0.2,4.9,1.3c1,1,1.5,3.6,1,4.9
			c-1.3,3-3,6-5.2,8.5c-5.4,6.2-11.1,12-16.6,18.1c-0.8,0.9-1.6,2.2-1.5,3.3c0.9,7.4,2,14.7,3.1,22.6c1.6-1.3,2.9-2.3,4.2-3.4
			c1.5-1.3,3.5-2.2,4.7-0.3c0.7,1.1,0.6,3.7-0.2,4.8c-1.6,2.3-4,3.9-5.8,6c-0.9,1.1-1.6,2.8-1.5,4.1c0.5,4.3,1.5,8.6,2.3,13.4
			c1.8-1.3,3.1-2.6,4.7-3.3c1.1-0.5,3.1-0.7,3.7-0.1c0.8,0.8,1.2,3.1,0.6,3.9c-1.9,2.7-4.1,5.2-6.5,7.5c-1.6,1.6-2,3-1.6,5.2
			c0.7,2.9,0.8,6,1.6,8.9c1.8,6.6-0.5,11.3-6.6,14.6c-0.4-0.9-0.8-1.8-1.1-2.8c-5.4-15.1-10.6-30.2-16.1-45.3
			c-0.9-2.6-2.4-5.1-4.3-7.1c-2.6-2.9-6.3-3.6-9.8-1.8c-3.7,1.9-7.4,4.1-10.5,6.8c-5.8,5.1-11.2,10.7-16.9,16
			c-1.6,1.5-2.1,3.1-1.8,5.1c0.7,4.5,0.8,9.1,1.9,13.4c1.7,6.4-0.5,11.1-5.3,15.4c-3.9-6.9-7.8-13.9-11.9-21
			C40.6,120.3,39,120.9,36.8,121.9z"/>
	</g>
</g>
<g id="Layer_2">
</g>
</svg>
