<svg id="Layer_1" data-name="Layer 1" xmlns="http://www.w3.org/2000/svg" viewBox="0 0 160 184.52"><defs><style>.cls-1,.cls-2{fill:#28b5a9;}.cls-2{isolation:isolate;font-size:18px;font-family:EncodeSansCondensed-Regular, Encode Sans Condensed;}.cls-3{fill:none;stroke:#28b5a9;stroke-miterlimit:10;stroke-width:2px;}</style></defs><title>css</title><g id="guides"><g id="Layer_1-2" data-name="Layer 1-2"><path class="cls-1" d="M156,4V156H4V4H156m4-4H0V160H160Z"/><text class="cls-2" transform="translate(67.67 180.33)">CSS</text></g></g><path class="cls-3" d="M35,23.71h91.69c2,1.25,2.46,3,2.25,5.29-1.07,11.29-2.05,22.6-3.05,33.9l-4.86,55c-.33,3.73-1.84,5.48-5.46,6.48-10,2.76-19.93,5.48-29.87,8.27a17.48,17.48,0,0,1-9.69,0c-9.88-2.78-19.77-5.5-29.66-8.25-3.94-1.1-5.39-2.89-5.74-6.94q-1.33-15.57-2.71-31.13Q35.37,57.68,32.77,29C32.56,26.74,33.06,25,35,23.71Zm49.35,44.6-.11-.78c.72-.38,1.41-.82,2.15-1.13q11-4.5,22-9a2.57,2.57,0,0,0,1.86-2.4c.15-2.13.44-4.26.67-6.39.37-3.46.16-3.7-3.26-3.71H52.83c-1.73,0-2.47.83-2.22,2.58S51,51,51.22,52.8c.31,2.74.5,2.92,3.33,2.93h24c.79,0,1.57.14,2.36.21l.13.62a20.66,20.66,0,0,1-1.9,1c-7.9,3.28-15.8,6.56-23.72,9.78-1.81.73-2.57,1.86-2.23,3.8.26,1.55.37,3.12.58,4.67.42,3.21.84,3.57,4.06,3.58H97c-.55,5.33-1,10.3-1.64,15.25a2.84,2.84,0,0,1-1.62,1.81c-3.8,1.44-7.64,2.76-11.5,4a4.58,4.58,0,0,1-2.65,0c-3.93-1.26-7.85-2.6-11.71-4.07a2.93,2.93,0,0,1-1.48-1.92c-.4-1.75-.4-3.62-.64-5.46-.29-2.43-1-3.1-3.44-3.14H58.46c-2.67,0-3.54.88-3.31,3.49.36,4.05.67,8.12,1.4,12.11a4.94,4.94,0,0,0,2.67,3.16c6.66,2.52,13.42,4.79,20.18,7a4.87,4.87,0,0,0,2.9,0c6.75-2.29,13.47-4.67,20.19-7a3.89,3.89,0,0,0,2.78-3.46q1.5-13.73,2.95-27.45c.36-3.54-1.06-5-4.61-5H86.69A17.36,17.36,0,0,1,84.35,68.31Z"/><path class="cls-3" d="M84.35,68.31a17.36,17.36,0,0,0,2.35.32h16.92c3.55,0,5,1.5,4.61,5-.94,9.16-2,18.3-2.95,27.45a3.89,3.89,0,0,1-2.78,3.46c-6.72,2.37-13.44,4.76-20.19,7a4.87,4.87,0,0,1-2.9,0c-6.76-2.26-13.52-4.53-20.18-7a4.94,4.94,0,0,1-2.67-3.16c-.72-4-1-8.06-1.4-12.11-.23-2.62.64-3.46,3.31-3.49h3.86c2.4,0,3.14.7,3.44,3.14.22,1.84.25,3.72.61,5.53a2.93,2.93,0,0,0,1.48,1.92c3.86,1.47,7.78,2.81,11.71,4.07a4.58,4.58,0,0,0,2.65,0c3.86-1.25,7.71-2.57,11.5-4a2.84,2.84,0,0,0,1.62-1.81c.63-5,1.09-9.92,1.64-15.25H57.81c-3.23,0-3.64-.36-4.06-3.58-.2-1.56-.32-3.13-.58-4.67-.33-1.94.42-3.07,2.23-3.8,7.92-3.22,15.82-6.5,23.72-9.78a20.66,20.66,0,0,0,1.9-1l-.13-.62c-.79-.07-1.57-.21-2.36-.21h-24c-2.82,0-3-.19-3.33-2.93-.2-1.77-.37-3.55-.61-5.32s.49-2.57,2.22-2.58h54.83c3.41,0,3.62.24,3.26,3.71-.23,2.13-.51,4.25-.67,6.39a2.57,2.57,0,0,1-1.89,2.46c-7.34,2.94-14.66,6-22,9-.75.31-1.44.75-2.15,1.13Z"/></svg>