<svg id="Layer_1" data-name="Layer 1" xmlns="http://www.w3.org/2000/svg" viewBox="0 0 160 186.18"><defs><style>.cls-1,.cls-2{fill:#28b5a9;}.cls-2{isolation:isolate;font-size:18px;font-family:ArialMT, Arial;}.cls-3{letter-spacing:-0.04em;}.cls-4{fill:none;stroke:#28b5a9;stroke-miterlimit:10;stroke-width:2px;}</style></defs><title>html</title><g id="guides"><g id="Layer_1-2" data-name="Layer 1"><path class="cls-1" d="M156,4V156H4V4H156m4-4H0V160H160V0Z"/><text class="cls-2" transform="translate(56.67 180.33)">HTM<tspan class="cls-3" x="38.99" y="0">L</tspan></text></g></g><path class="cls-4" d="M33,23h98.16a9.81,9.81,0,0,1,.68,2.87c-.48,6.39-1.08,12.76-1.65,19.14-2.31,25.59-4.64,51.17-6.88,76.77-.21,2.46-1.21,3.64-3.55,4.28-11.5,3.11-22.94,6.42-34.46,9.45a13.25,13.25,0,0,1-6.47,0c-11.59-3.05-23.11-6.37-34.67-9.53a4,4,0,0,1-3.3-4c-1.12-13.5-2.36-27-3.57-40.48q-2.51-27.94-5-55.87A8.26,8.26,0,0,1,33,23ZM82,43.84q-14.15,0-28.29,0c-2.56,0-3,.53-2.77,3q1.4,15.51,2.77,31c.32,3.66.56,3.92,4.29,3.92H94.5c2.47,0,2.86.39,2.68,2.86-.27,3.67-.62,7.34-.94,11a3.2,3.2,0,0,1-2.73,3c-3.49.91-7,1.9-10.44,2.82a3.58,3.58,0,0,1-1.73.09c-3.7-1-7.39-2-11.08-3a3,3,0,0,1-2.38-3.06c-.09-1.62-.29-3.23-.42-4.84S66.51,88,64.66,88c-2.5,0-5,0-7.52,0-1.83,0-2.47.93-2.3,2.68q.66,7,1.25,14.08a3.74,3.74,0,0,0,3.11,3.71c7.18,1.92,14.31,4,21.48,5.94a5.16,5.16,0,0,0,2.58,0c7.38-2,14.74-4.08,22.12-6.11a3.12,3.12,0,0,0,2.59-3.08q1.41-16.73,3-33.45c.19-2-.66-2.62-2.52-2.59-4.05.06-8.1,0-12.16,0H69.06c-3.15,0-3.56-.4-3.82-3.46Q65,63,64.76,60.29c-.34-3.71-.21-3.86,3.58-3.86,13.93,0,27.85,0,41.78,0,1.68,0,2.38-.46,2.44-2.17.09-2.43.37-4.85.55-7.27.21-2.82-.12-3.18-3-3.18Z"/></svg>