<svg id="Layer_1" data-name="Layer 1" xmlns="http://www.w3.org/2000/svg" viewBox="0 0 160 184.53"><defs><style>.cls-1,.cls-2{fill:#28b5a9;}.cls-2{isolation:isolate;font-size:18px;font-family:EncodeSansCondensed-Regular, Encode Sans Condensed;}.cls-3{letter-spacing:-0.02em;}.cls-4{letter-spacing:0em;}.cls-5{letter-spacing:0em;}.cls-6{letter-spacing:0em;}.cls-7{fill:none;stroke:#28b5a9;stroke-miterlimit:10;stroke-width:2px;}</style></defs><title>icon-ux</title><g id="guides"><g id="Layer_1-2" data-name="Layer 1"><path class="cls-1" d="M156,4V156H4V4H156m4-4H0V160H160V0Z"/><text class="cls-2" transform="translate(33.67 180.33) scale(0.85 1)">User <tspan class="cls-3" x="35.32" y="0">E</tspan><tspan class="cls-4" x="43.92" y="0">x</tspan><tspan class="cls-5" x="51.62" y="0">p</tspan><tspan x="60.34" y="0">e</tspan><tspan class="cls-5" x="68.34" y="0">r</tspan><tspan class="cls-4" x="73.98" y="0">ien</tspan><tspan class="cls-6" x="94.39" y="0">c</tspan><tspan x="100.96" y="0">e</tspan></text></g></g><path class="cls-7" d="M60.65,45.15H74.74a13.7,13.7,0,0,1,.48,2.52c0,14.1.18,28.21-.09,42.31-.18,9.34-2.88,17.8-12.6,21.45a39.46,39.46,0,0,1-28.91-.2,18.19,18.19,0,0,1-12-16.79c-.69-15.38-.65-30.79-.93-46.18,0-2.29.73-3.48,3.27-3.42,14.14.35,11.56-2.28,11.77,11.07.18,11.34.05,22.68.22,34C36,97,39.88,100.68,47.5,101.35c7.15.63,11.84-2.45,12.57-9.45.75-7.19.5-14.5.57-21.75C60.71,61.91,60.65,53.66,60.65,45.15Z"/><path class="cls-7" d="M107.76,90.8c-4.32,6.55-8.42,12.49-12.2,18.63a6.26,6.26,0,0,1-6.38,3.36c-4-.22-8.1-.05-13.12-.05,1.26-2.14,2-3.61,2.94-5,5.91-9,11.76-18,17.84-26.84,1.71-2.49,1.9-4.27.11-6.87-5.51-8-10.71-16.24-16-24.4-.83-1.28-1.53-2.65-2.73-4.74,5.74,0,10.64-.2,15.5.14,1.2.08,2.51,1.75,3.36,3,3.55,5.11,6.94,10.33,10.76,16.08,3.72-5.61,7.27-10.69,10.5-16a6.23,6.23,0,0,1,6.39-3.34c3.88.24,7.79.06,12.59.06-1.14,2-1.82,3.35-2.63,4.61C129.3,57.75,124,66.06,118.46,74.25c-1.53,2.28-1.49,4,.05,6.26,6,8.89,11.88,17.9,17.78,26.88.93,1.42,1.77,2.89,3.21,5.28-6,0-11.16.16-16.27-.13-1.07-.06-2.26-1.64-3-2.77C116.11,103.66,112.12,97.47,107.76,90.8Z"/></svg>