<svg id="Layer_1" data-name="Layer 1" xmlns="http://www.w3.org/2000/svg" viewBox="0 0 160 184.53"><defs><style>.cls-1,.cls-2{fill:#28b5a9;}.cls-2{isolation:isolate;font-size:18px;font-family:EncodeSansCondensed-Regular, Encode Sans Condensed;}.cls-3{letter-spacing:-0.02em;}.cls-4{letter-spacing:0em;}.cls-5{fill:none;stroke:#28b5a9;stroke-miterlimit:10;stroke-width:2px;}</style></defs><title>icon-grav</title><g id="guides"><g id="Layer_1-2" data-name="Layer 1"><path class="cls-1" d="M156,4V156H4V4H156m4-4H0V160H160V0Z"/><text class="cls-2" transform="translate(66.67 180.33) scale(0.85 1)">G<tspan class="cls-3" x="10.37" y="0">r</tspan><tspan class="cls-4" x="15.7" y="0">av</tspan></text></g></g><g id="Layer_1_1" data-name="Layer 1 1"><path class="cls-5" d="M83.33,64.63a1.62,1.62,0,1,0-2.29,0A1.62,1.62,0,0,0,83.33,64.63Z"/><path class="cls-5" d="M77.62,65.76a1.62,1.62,0,1,0,2.29,0A1.61,1.61,0,0,0,77.62,65.76Z"/><path class="cls-5" d="M87.55,66.61a2.53,2.53,0,0,0-3.58,0l-2.11,2.1a2.53,2.53,0,0,0,0,3.58l2.31,2.31a2.53,2.53,0,0,0,3.58,0l2.11-2.1a2.53,2.53,0,0,0,0-3.58Z"/><path class="cls-5" d="M107.58,58.77c2.67-5.09-1.11-8.06-3.71-10.5-4.16-3.91-8.32-5.6-13.06-.19s-1.73,11.69,2.61,14.79S104.9,63.85,107.58,58.77Zm-7.18-2.09c-1.67-2,1.45-5.63,3.41-3.46C107.42,57.21,102.07,58.68,100.4,56.68Z"/><path class="cls-5" d="M80.05,24.52a54,54,0,1,0,54,54A54,54,0,0,0,80.05,24.52Zm29.23,62.84c-5.64-3.72-8.86-6.86-11.66-12.5-1.92,3.86-6.4,9.61-14,14.12-3.77,11.72-21.72,34.16-27.53,31-1.72-.94-2-2.18-1.66-3.46.42-3.2,7.05-10.57,7.05-10.57s.14,1.55,2.26,4.8C61,102,68.43,91.3,70.4,87.65c3.1-1,3.32-5,3.32-5a17.68,17.68,0,0,0-5.21-13.24c1.91,2.33,2.53,5.85,2.62,9.08v0c0,.36,0,.72,0,1.08C71,82.29,70.24,86,68.51,86v0a18.51,18.51,0,0,0-5.93.92l-4.34,1a6,6,0,0,1,3.56,1,19.71,19.71,0,0,1-7.93,6.66c-5,2.32-6.46-2.3-3.91-5.31a16.37,16.37,0,0,1,1.85-1.86,2.58,2.58,0,0,1-.69-1.6h0c-.35-1.53-.16-3.53,2-6.69a16.75,16.75,0,0,1,1.56-2.05l.06-.07.08-.09,0-.05c.16-.18.32-.35.5-.51,2.59-2.65,6.68-5.41,13.13-7.88,7.52-11,10.27-13.11,10.27-13.11a15,15,0,0,1,2.82-2.18c-3.93-6.81-4.72-16.42-3.69-19a3.72,3.72,0,0,0-.22.43,5.23,5.23,0,0,1,1-1.64c1.07-1.27,4.71-1.93,6,.75a10.82,10.82,0,0,1,.8,4.67C82.66,39.23,80,42.51,80,42.51a14.12,14.12,0,0,1,5.34-1.14,14.48,14.48,0,0,1,1.77,2c-1.33,2.49-3.52,7.78-1.93,13.32a9.66,9.66,0,0,0,1.15,2.83l.05.1.11.14A10.92,10.92,0,0,0,94,64.14,12.35,12.35,0,0,1,88.67,59a16.07,16.07,0,0,1-1.24-2.92c-1.27-4.9.6-7.76,1.67-9.68a12.33,12.33,0,1,1,16.3,17.46,8.55,8.55,0,0,1-.06,4.87c2.05,2.58,2.14,4.06,2.07,5.45a8,8,0,0,0-5.14,1.32s5-1.2,8,1.4a27.58,27.58,0,0,1,3.92,5.25c1.08,1.94,6.11,2.08,5.53,5.58S115.28,91.31,109.28,87.36Z"/></g></svg>