<svg id="Layer_1" data-name="Layer 1" xmlns="http://www.w3.org/2000/svg" viewBox="0 0 160 182.53"><defs><style>.cls-1,.cls-2,.cls-7{fill:#28b5a9;}.cls-2{isolation:isolate;font-size:18px;font-family:EncodeSansCondensed-Regular, Encode Sans Condensed;}.cls-3{letter-spacing:0em;}.cls-4{letter-spacing:0em;}.cls-5{letter-spacing:0em;}.cls-6{fill:none;stroke:#28b5a9;stroke-miterlimit:10;stroke-width:2px;}.cls-7{font-size:19px;font-family:Roboto-Regular, Roboto;}.cls-8{letter-spacing:-0.01em;}</style></defs><title>icon-agile</title><g id="guides"><g id="Layer_1-2" data-name="Layer 1"><path class="cls-1" d="M156,4V156H4V4H156m4-4H0V160H160V0Z"/><text class="cls-2" transform="translate(25.67 178.33) scale(0.85 1)"><tspan class="cls-3">A</tspan><tspan class="cls-4" x="10.55" y="0">gile D</tspan><tspan class="cls-5" x="49.12" y="0">ev</tspan><tspan x="65.2" y="0">elopment</tspan></text></g></g><g id="g81"><g id="g83"><path id="path85" class="cls-6" d="M118.94,116.72h13.21V111L145,123.87l-12.84,12.85V131H100.93A58.84,58.84,0,0,0,118.94,116.72Z"/><path id="path87" class="cls-6" d="M69,41.42a37.83,37.83,0,0,0-15.75,68.88H32.76A52.08,52.08,0,0,1,68.24,27.13L61.45,33.9,69,41.42Z"/><path id="path89" class="cls-6" d="M22.91,123.87l-7.14-7.14H74.32A37.84,37.84,0,0,0,80.75,41.6v5.16L67.89,33.9,80.75,21v6.12A52.12,52.12,0,0,1,74.32,131H15.76Z"/></g></g><text class="cls-7" transform="translate(47.32 85.66)"><tspan class="cls-8">A</tspan><tspan x="12.29" y="0">GILE</tspan></text></svg>