<svg id="Layer_1" data-name="Layer 1" xmlns="http://www.w3.org/2000/svg" viewBox="0 0 160 184.53"><defs><style>.cls-1,.cls-2{fill:#28b5a9;}.cls-2{isolation:isolate;font-size:18px;font-family:EncodeSansCondensed-Regular, Encode Sans Condensed;}.cls-3{letter-spacing:0.01em;}.cls-4{fill:none;stroke:#28b5a9;stroke-miterlimit:10;stroke-width:2px;}</style></defs><title>icon-sass</title><g id="guides"><g id="Layer_1-2" data-name="Layer 1"><path class="cls-1" d="M156,4V156H4V4H156m4-4H0V160H160V0Z"/><text class="cls-2" transform="translate(66.67 180.33) scale(0.85 1)"><tspan class="cls-3">S</tspan><tspan x="8.35" y="0">ass</tspan></text></g></g><path class="cls-4" d="M124.88,86.78a25.34,25.34,0,0,0-11.15,2.59c-1.15-2.28-2.31-4.28-2.5-5.77a16,16,0,0,1-.22-4.85,38.92,38.92,0,0,1,1.47-5.24c0-.22-.26-1.27-2.74-1.3s-4.61.48-4.85,1.13a27.59,27.59,0,0,0-1,3.68c-.43,2.26-4.95,10.26-7.52,14.46a14.75,14.75,0,0,1-1.71-4.23,16,16,0,0,1-.22-4.85,38.92,38.92,0,0,1,1.47-5.24c0-.22-.26-1.27-2.74-1.3s-4.61.48-4.85,1.13-.5,2.19-1,3.68S80.75,95.52,79.19,99c-.79,1.78-1.49,3.2-2,4.16s0,.07-.07.17l-.67,1.27v0c-.34.6-.7,1.18-.86,1.18a8,8,0,0,1,0-3.82c.89-4.64,3.05-11.87,3-12.13s.41-1.39-1.39-2a2.19,2.19,0,0,0-2.52.43c-.14,0-.26.38-.26.38s1.95-8.14-3.72-8.14c-3.56,0-8.46,3.87-10.88,7.4L51.61,92.4c-1.32.72-2.69,1.49-4,2.19l-.26-.29C40.48,87,27.77,81.78,28.3,71.93c.19-3.58,1.44-13,24.41-24.46,18.81-9.37,33.88-6.8,36.49-1.08,3.72,8.17-8,23.35-27.61,25.54-7.45.84-11.36-2-12.35-3.12s-1.18-1.18-1.56-1c-.62.34-.24,1.35,0,1.95.58,1.51,3,4.2,7.06,5.55,3.58,1.18,12.33,1.83,22.9-2.26,11.84-4.59,21.09-17.32,18.38-28C93.27,34.28,75.3,30.73,58.31,36.76c-10.11,3.6-21.07,9.23-29,16.6C20,62.1,18.5,69.74,19.12,72.91c2.19,11.32,17.78,18.69,24,24.15l-.86.48c-3.12,1.54-15,7.76-18,14.34-3.36,7.45.53,12.81,3.12,13.53,8,2.23,16.24-1.78,20.69-8.38s3.89-15.18,1.85-19.1l-.07-.14,2.45-1.44c1.59-.94,3.15-1.8,4.52-2.55A29.91,29.91,0,0,0,55.23,102c-.34,4.23,1.39,9.71,3.68,11.87a4.07,4.07,0,0,0,3,1c2.64,0,3.84-2.19,5.17-4.81,1.63-3.2,3.08-6.9,3.08-6.9s-1.8,10,3.12,10c1.8,0,3.6-2.33,4.42-3.53v0l.14-.24c.19-.29.29-.46.29-.46v0c.72-1.25,2.33-4.11,4.73-8.84,3.1-6.1,6.08-13.74,6.08-13.74a43.85,43.85,0,0,0,1.18,4.95A47.42,47.42,0,0,0,92.64,97c-.72,1-1.15,1.59-1.15,1.59l0,0c-.58.77-1.23,1.59-1.9,2.4-2.45,2.93-5.38,6.27-5.77,7.23a2,2,0,0,0,.53,2.64,4.81,4.81,0,0,0,3,.48,13.49,13.49,0,0,0,4.52-1,15.64,15.64,0,0,0,3.89-2,8.67,8.67,0,0,0,3.72-7.66,15.41,15.41,0,0,0-1.42-5.41c.22-.31.43-.62.65-1A101.4,101.4,0,0,0,105.5,82.6a43.85,43.85,0,0,0,1.18,4.95,34.72,34.72,0,0,0,2.19,4.95A21.36,21.36,0,0,0,102.3,101c-1.42,4.08-.31,5.93,1.78,6.37a6.4,6.4,0,0,0,3.29-.67,14.9,14.9,0,0,0,4.16-2.14c2.4-1.78,4.71-4.25,4.59-7.59a14.55,14.55,0,0,0-1-4.49A23.41,23.41,0,0,1,127,91.08c10.69,1.25,12.81,7.93,12.4,10.72A7.18,7.18,0,0,1,136,106.6c-.74.46-1,.62-.91,1,.1.5.43.48,1.08.38a8.32,8.32,0,0,0,5.81-7.42c.29-6.61-6-13.81-17.11-13.74Zm-82.46,27.8c-3.53,3.87-8.51,5.33-10.62,4.08-2.28-1.32-1.39-7,3-11.12a56.53,56.53,0,0,1,8.34-6.22L45.29,100l.24-.14.55-.34a15.33,15.33,0,0,1-3.65,15.06ZM68.26,97c-1.23,3-3.82,10.72-5.38,10.28-1.35-.36-2.16-6.2-.26-12a26.71,26.71,0,0,1,4.2-7.71c1.95-2.16,4.06-2.88,4.59-2C72,86.78,69,95.14,68.26,97ZM89.57,107.2c-.53.26-1,.46-1.23.31s.22-.46.22-.46,2.67-2.86,3.72-4.18c.6-.77,1.32-1.66,2.09-2.67v.29C94.37,104,91.06,106.26,89.57,107.2ZM106,103.45c-.38-.29-.34-1.18,1-4a14.85,14.85,0,0,1,3.65-4.71,6,6,0,0,1,.36,2.07C110.95,101.17,107.87,102.78,106,103.45Z"/></svg>