<svg id="Layer_1" data-name="Layer 1" xmlns="http://www.w3.org/2000/svg" viewBox="0 0 160 182.53"><defs><style>.cls-1,.cls-2{fill:#28b5a9;}.cls-2{isolation:isolate;font-size:18px;font-family:EncodeSansCondensed-Regular, Encode Sans Condensed;}.cls-3{letter-spacing:-0.03em;}.cls-4{letter-spacing:-0.01em;}.cls-5{letter-spacing:0em;}.cls-6{fill:none;stroke:#28b5a9;stroke-miterlimit:10;stroke-width:2px;}</style></defs><title>icon-wordpress</title><g id="guides"><g id="Layer_1-2" data-name="Layer 1"><path class="cls-1" d="M156,4V156H4V4H156m4-4H0V160H160V0Z"/><text class="cls-2" transform="translate(48.67 178.33) scale(0.85 1)"><tspan class="cls-3">W</tspan><tspan x="15.98" y="0">o</tspan><tspan class="cls-4" x="24.55" y="0">r</tspan><tspan class="cls-5" x="29.95" y="0">dp</tspan><tspan class="cls-4" x="47.3" y="0">r</tspan><tspan x="52.7" y="0">ess</tspan></text></g></g><path class="cls-6" d="M80.19,136.86c-31.78.28-58.22-26.15-57.92-58.51.29-31.22,26.24-57.13,57.79-57.16,31.93,0,58.1,26.17,57.93,58A57.82,57.82,0,0,1,80.19,136.86ZM80,134.24A55.19,55.19,0,1,0,80.3,23.87C50,23.78,25,48.58,25,78.61,24.94,109.41,49.5,134.24,80,134.24Z"/><path class="cls-6" d="M80,134.24c-30.46,0-55-24.83-55-55.63C25,48.58,50,23.78,80.3,23.87A55.19,55.19,0,1,1,80,134.24ZM64.84,59.79h34v2.15c-.91.09-1.8.19-2.69.25-4.17.28-5.28,2-3.82,5.86L105,102l1.47,3.92.51,0c2.19-5.87,4.71-11.64,6.48-17.63,2.6-8.78,3-17.65-.94-26.3a19.76,19.76,0,0,1-1.28-4.48c-1.06-5.49.85-8.7,6.07-10.38-10.58-13-30.19-21-50.25-15.36-15,4.19-25.53,13.69-32.22,28h23V62c-.43,0-.74.06-1.06.06-4.45.1-6,2.36-4.34,6.46l14.82,37.13c.24.61.53,1.2,1,2.19,3.69-8.8,7.2-17.12,10.63-25.48a3.36,3.36,0,0,0-.2-2.2c-1.52-4-3.28-7.95-4.63-12s-4.08-5.73-7.91-6.2C64.63,61.74,64.37,61.15,64.84,59.79ZM81.64,87.2l-.49-.06L64.49,125.91a49.38,49.38,0,0,0,32-.27ZM33.28,65.8a46.62,46.62,0,0,0,2.91,35.58c4.29,8.68,14.46,19,19.85,20.34Zm71.85,55.64c20.35-11.32,28.78-37,21.84-56.67Z"/></svg>