<svg id="Layer_1" data-name="Layer 1" xmlns="http://www.w3.org/2000/svg" viewBox="0 0 160 184.53"><defs><style>.cls-1,.cls-2{fill:#28b5a9;}.cls-2{isolation:isolate;font-size:18px;font-family:EncodeSansCondensed-Regular, Encode Sans Condensed;}.cls-3{fill:none;stroke:#28b5a9;stroke-miterlimit:10;stroke-width:2px;}</style></defs><title>icon-gulp</title><g id="guides"><g id="Layer_1-2" data-name="Layer 1"><path class="cls-1" d="M156,4V156H4V4H156m4-4H0V160H160V0Z"/><text class="cls-2" transform="translate(66.67 180.33) scale(0.85 1)">Gulp</text></g></g><path class="cls-3" d="M96.36,141.47l1.27-21.15,3.51-6s-8,3.26-21.33,3.26-21.21-3.2-21.21-3.2l3.93,6.53,1.39,20.55c0,2.2,7.26,4,16.23,4s16.23-1.79,16.23-4m-4-98.78L95,32.16l14.76-15.53-3.89-3.31L90.27,29.86,87.17,42.44q-3.49-.12-7-.12c-16.45,0-29.79,1.88-29.79,4.19S63.73,50.7,80.19,50.7,110,48.82,110,46.51c0-1.7-7.23-3.17-17.62-3.82"/><path class="cls-1" d="M90.81,48.59a12.65,12.65,0,0,1-2.27.14c-1.7,0-2.9,0-3.38-.45a.76.76,0,0,1-.2-.51.65.65,0,0,1,.49-.59l.26.4c-.11,0-.18.08-.18.13,0,.23,1.74.38,3.06.37s2.93-.13,2.94-.35c0-.07-.12-.13-.33-.18l.26-.4c.34.11.64.31.64.67,0,.61-.78.7-1.28.77"/><path class="cls-3" d="M109.75,16.66c.37-.43-.19-1.52-1.26-2.45s-2.23-1.32-2.6-.9.19,1.52,1.26,2.45,2.23,1.32,2.6.9M95.65,89.8c-.35-3.36,7.36-8.24,5.38-8.39-4.26.24-6.38,5-8.52,10C91.73,93.19,89,101,87.28,100s2.28-7.35,3.42-11.14c-1.31,1-6.11,4.69-7.34,1.2-2,1.69-6.24,2.6-5.76-1.83-1.06,1.87-3.43,4.49-6.28,3.4C67.57,90.2,73.48,78.28,75,78.89s-.3,3.32-.76,4.37c-1,2.32-2.19,5.24-1.41,5.84,1.35,1,5-3.87,5.09-4,.68-.9,2.64-6.82,4.21-6.14s-3.92,8.49-1.87,10c.41.31,2.11-.19,3.14-1.31.67-.72.44-2.32,2.66-7.62s4.21-11.91,5.73-11.4.27,3.89-.28,5.16c-2.57,5.93-7,15.73-4.91,15s3.18-.78,5.23-3.18,2-6.35,3.32-6.27,1.14,1.35.81,2.32c1.34-1.54,6.38-4.78,7.59-1.57,1.44,3.8-7.2,9.29-5,9s5.5-2.43,7-4.39l4-35.93s-4,3.33-29.61,3.33S50.6,48.88,50.6,48.88L54,81.68c1.81-5.13,6.1-15.52,12.86-15.17,3.08.16,7.18,6.08,3.66,6.28-1.49.08-1.64-3-3.4-3.4-1.27-.32-3,.71-4.19,1.83-2.28,2.23-7.19,11-6.54,15.44.83,5.6,7.73-1.95,8.9-4.19.82-1.58,1.38-6.26,3.18-5.77S68.31,82,67,86.29c-1.47,4.79-2.24,9.85-4.07,9.27s1.16-6.77,1-7.85c-1.73,1.59-4.91,5.62-9,3.63l2.11,20.37s5.62,4.44,22.54,4.44,22.74-4.37,22.74-4.37L105,88.18c-2.15,2.09-8.94,5.8-9.38,1.62"/></svg>