<svg id="Layer_1" data-name="Layer 1" xmlns="http://www.w3.org/2000/svg" viewBox="0 0 160 184.53"><defs><style>.cls-1,.cls-2{fill:#28b5a9;}.cls-2{isolation:isolate;font-size:18px;font-family:EncodeSansCondensed-Regular, Encode Sans Condensed;}.cls-3{letter-spacing:-0.02em;}.cls-4{letter-spacing:0em;}.cls-5{letter-spacing:0em;}.cls-6{letter-spacing:0em;}.cls-7{letter-spacing:0em;}</style></defs><title>icon-conversable</title><g id="guides"><g id="Layer_1-2" data-name="Layer 1"><path class="cls-1" d="M156,4V156H4V4H156m4-4H0V160H160V0Z"/><text class="cls-2" transform="translate(45.67 180.33) scale(0.85 1)"><tspan class="cls-3">C</tspan><tspan class="cls-4" x="8.44" y="0">on</tspan><tspan class="cls-5" x="25.78" y="0">v</tspan><tspan x="33.92" y="0">e</tspan><tspan class="cls-6" x="41.91" y="0">r</tspan><tspan x="47.45" y="0">sa</tspan><tspan class="cls-7" x="62.31" y="0">b</tspan><tspan x="71.01" y="0">le</tspan></text></g></g><path class="cls-1" d="M80.11,140.16c-5.77-8.41-11.23-16.31-16.63-24.25C53.36,101,43.31,86.12,33.17,71.26c-1.42-2.08-2.21-3.66-.47-6.18,10.07-14.5,19.94-29.14,29.9-43.72a25.45,25.45,0,0,1,1.92-2.09L80.39,42.14l16-23.26C102,27,107,34.36,112.06,41.74c5.16,7.57,10.44,15.06,15.33,22.81,1,1.53,1.28,4.65.37,6-15.06,22.59-30.37,45-45.63,67.47A24.42,24.42,0,0,1,80.11,140.16ZM48.22,46.47c-4.84,7.1-9.14,13.36-13.35,19.69a3.13,3.13,0,0,0-.42,2.66c4.39,6.72,8.93,13.35,13.78,20.52,4.71-6.94,9-13,13-19.3a4.42,4.42,0,0,0,.26-3.88C57.38,59.77,53,53.54,48.22,46.47Zm16.11,19.2c4.74-7,9.05-13.28,13.22-19.64a3.57,3.57,0,0,0,.36-3.1c-4.31-6.59-8.79-13.05-13.6-20.09-4.78,7-9.15,13.21-13.26,19.59a4.43,4.43,0,0,0,.24,3.9C55.33,52.59,59.59,58.7,64.34,65.67Zm16,28c-4.79,7-9.12,13.3-13.3,19.66a3.52,3.52,0,0,0-.28,3.09c4.31,6.64,8.8,13.17,13.56,20.22,4.75-7,9.1-13.31,13.2-19.74a4.34,4.34,0,0,0-.15-3.83C89.36,106.82,85.09,100.68,80.37,93.71Zm16-70.89c-4.78,7-9.14,13.22-13.3,19.58a3.92,3.92,0,0,0,0,3.49c4.22,6.51,8.63,12.89,13.31,19.79,4.73-7,9.09-13.21,13.2-19.62a4.37,4.37,0,0,0-.11-3.87C105.43,35.91,101.16,29.78,96.41,22.81ZM112.48,46.5c-4.74,7-9.17,13.37-13.44,19.88a3.43,3.43,0,0,0,0,3.06c4.25,6.51,8.66,12.92,13.42,19.95,4.8-7.1,9.21-13.52,13.46-20a3.42,3.42,0,0,0,0-3.05C121.64,59.82,117.21,53.43,112.48,46.5ZM64.24,112.94c4.71-6.92,9-13.05,13-19.29.6-.92,1-2.73.49-3.5-4.25-6.59-8.72-13-13.47-20-4.76,7-9.09,13.29-13.23,19.68a3.91,3.91,0,0,0,0,3.47C55.18,99.68,59.5,105.93,64.24,112.94Zm32.24,0c4.61-6.82,8.85-13,12.91-19.23.6-.92,1-2.73.51-3.5-4.26-6.61-8.74-13.07-13.51-20.09-4.74,7-9.07,13.23-13.26,19.59a3.49,3.49,0,0,0-.24,3.07C87.21,99.45,91.72,106,96.47,113ZM80.36,46.57c-4.83,7.08-9.22,13.49-13.53,19.94a2.57,2.57,0,0,0-.24,2.25C71,75.48,75.51,82.12,80.33,89.26c4.68-6.87,8.91-12.83,12.8-19a5.31,5.31,0,0,0,0-4.67C89.28,59.41,85,53.45,80.36,46.57Z"/></svg>