<svg id="Layer_1" data-name="Layer 1" xmlns="http://www.w3.org/2000/svg" viewBox="0 0 160 184.53"><defs><style>.cls-1,.cls-2{fill:#28b5a9;}.cls-2{isolation:isolate;font-size:18px;font-family:EncodeSansCondensed-Regular, Encode Sans Condensed;}.cls-3{letter-spacing:0em;}.cls-4{letter-spacing:0em;}.cls-5{letter-spacing:-0.02em;}.cls-6{fill:none;stroke:#28b5a9;stroke-miterlimit:10;stroke-width:2px;}</style></defs><title>icon-ai</title><g id="guides"><g id="Layer_1-2" data-name="Layer 1"><path class="cls-1" d="M156,4V156H4V4H156m4-4H0V160H160V0Z"/><text class="cls-2" transform="translate(50.67 180.33) scale(0.85 1)">Illu<tspan class="cls-3" x="19.94" y="0">s</tspan><tspan class="cls-4" x="26.68" y="0">t</tspan><tspan class="cls-5" x="32.47" y="0">r</tspan><tspan class="cls-4" x="37.8" y="0">ador</tspan></text></g></g><path class="cls-6" d="M113.53,58.58c0-.69.26-1,1-1H128c.69,0,1,.26,1,1v67.74c0,.69-.17,1-1,1H114.73c-.86,0-1.12-.43-1.12-1.12V58.58h-.09Zm-.94-19.49c0-5.5,3.86-8.76,8.76-8.76,5.24,0,8.76,3.52,8.76,8.76,0,5.67-3.69,8.76-8.93,8.76C116.19,47.85,112.59,44.76,112.59,39.09ZM73.95,86.83c-2.4-9.53-8.07-30.31-10.22-40.35h-.17c-1.8,10-6.35,27-10,40.35ZM50.08,100.74,43.3,126.5c-.17.69-.43.86-1.29.86H29.39c-.86,0-1-.26-.86-1.29L52.91,40.72a27.81,27.81,0,0,0,.86-7.13c0-.6.26-.86.69-.86h18c.6,0,.86.17,1,.86l27.3,92.64c.17.69,0,1.12-.69,1.12H85.88c-.69,0-1.12-.17-1.29-.77l-7-25.84H50.08Z"/></svg>