<svg id="Layer_1" data-name="Layer 1" xmlns="http://www.w3.org/2000/svg" viewBox="0 0 160 184.53"><defs><style>.cls-1,.cls-2{fill:#28b5a9;}.cls-2{isolation:isolate;font-size:18px;font-family:EncodeSansCondensed-Regular, Encode Sans Condensed;}.cls-3{letter-spacing:-0.02em;}.cls-4{letter-spacing:0em;}.cls-5{letter-spacing:-0.01em;}.cls-6{fill:none;stroke:#28b5a9;stroke-miterlimit:10;stroke-width:2px;}</style></defs><title>icon-javascript</title><g id="guides"><g id="Layer_1-2" data-name="Layer 1"><path class="cls-1" d="M156,4V156H4V4H156m4-4H0V160H160V0Z"/><text class="cls-2" transform="translate(52.67 180.33) scale(0.85 1)">Ja<tspan class="cls-3" x="12.01" y="0">v</tspan><tspan x="19.89" y="0">asc</tspan><tspan class="cls-4" x="41.41" y="0">r</tspan><tspan x="47.05" y="0">i</tspan><tspan class="cls-5" x="50.7" y="0">p</tspan><tspan x="59.17" y="0">t</tspan></text></g></g><path class="cls-6" d="M92.22,95.18c.64.91,1.23,1.8,1.88,2.65a16.64,16.64,0,0,0,19.85,5.66A7,7,0,0,0,118.37,98a6.85,6.85,0,0,0-3.08-7.15A52.29,52.29,0,0,0,109,87.45c-3.9-1.87-7.9-3.54-11.78-5.46a26.15,26.15,0,0,1-7.62-5.73,20.64,20.64,0,0,1-5.39-12.61A22.23,22.23,0,0,1,85.4,53.54,19.84,19.84,0,0,1,98,41.63a29.66,29.66,0,0,1,13-1.31,23,23,0,0,1,11.85,4.34,26,26,0,0,1,6.91,8.17l-12.33,7.92c-.51-.78-1-1.51-1.45-2.21a9.85,9.85,0,0,0-6.42-4.35,10.55,10.55,0,0,0-4.85.14,6.22,6.22,0,0,0-4.81,5,6.89,6.89,0,0,0,2.31,6.94,26.29,26.29,0,0,0,6.18,3.51c4.23,1.95,8.51,3.79,12.65,5.9a26.14,26.14,0,0,1,9.42,7.76A20.58,20.58,0,0,1,134.25,94a24.13,24.13,0,0,1-1.07,10.21c-2,5.78-6.05,9.62-11.56,12a34.75,34.75,0,0,1-16.15,2.47,33.36,33.36,0,0,1-14.49-4,28.28,28.28,0,0,1-11.3-11.44c-.29-.53-.24-.77.29-1.08,3.86-2.21,7.71-4.46,11.56-6.69C91.75,95.42,92,95.31,92.22,95.18Z"/><path class="cls-6" d="M23.65,104.26l12.79-7.75c.18.28.33.53.49.77.9,1.36,1.72,2.78,2.73,4.05,2.16,2.74,5.11,3.6,8.48,3.21a11.45,11.45,0,0,0,2.12-.42c2.64-.83,3.92-2.84,4.37-5.4A27.74,27.74,0,0,0,55,94q0-25.9,0-51.79V41h.72c4.81,0,9.61,0,14.42,0,.62,0,.79.17.78.78q0,26.56,0,53.12a28.86,28.86,0,0,1-2.25,11.93A18.72,18.72,0,0,1,56,117.64a30.54,30.54,0,0,1-18.77-.5c-6.26-2.22-10.62-6.57-13.52-12.46a2,2,0,0,1-.1-.26S23.63,104.37,23.65,104.26Z"/></svg>