<svg id="Layer_1" data-name="Layer 1" xmlns="http://www.w3.org/2000/svg" viewBox="0 0 160 184.53"><defs><style>.cls-1,.cls-2{fill:#28b5a9;}.cls-2{isolation:isolate;font-size:18px;font-family:EncodeSansCondensed-Regular, Encode Sans Condensed;}.cls-3{letter-spacing:-0.01em;}.cls-4{letter-spacing:-0.01em;}.cls-5{letter-spacing:0em;}.cls-6{fill:none;stroke:#28b5a9;stroke-miterlimit:10;stroke-width:2px;}</style></defs><title>icon-ps</title><g id="guides"><g id="Layer_1-2" data-name="Layer 1"><path class="cls-1" d="M156,4V156H4V4H156m4-4H0V160H160V0Z"/><text class="cls-2" transform="translate(48.67 180.33) scale(0.85 1)">Ph<tspan class="cls-3" x="18.64" y="0">o</tspan><tspan class="cls-4" x="27.01" y="0">t</tspan><tspan class="cls-5" x="32.71" y="0">oshop</tspan></text></g></g><path class="cls-6" d="M113.9,68.46c-6.62,0-8.88,3.35-8.88,6.12,0,3,1.51,5.11,10.39,9.72,13.15,6.37,17.26,12.48,17.26,21.45,0,13.41-10.22,20.61-24,20.61-7.29,0-13.57-1.51-17.18-3.6-.59-.25-.67-.67-.67-1.34V109.1c0-.84.42-1.09,1-.67a31.1,31.1,0,0,0,16.84,4.94c6.62,0,9.38-2.77,9.38-6.54,0-3-1.93-5.7-10.39-10.05-11.9-5.7-16.84-11.48-16.84-21.11,0-10.81,8.46-19.77,23.13-19.77,7.21,0,12.23,1.09,15,2.35a1.86,1.86,0,0,1,.84,1.68V71.39c0,.67-.42,1.09-1.26.84-3.69-2.35-9.13-3.77-14.58-3.77Zm-72.06,10c1.93.17,3.44.17,6.79.17,9.8,0,19-3.44,19-16.76,0-10.64-6.62-16-17.76-16-3.35,0-6.54.17-8,.25ZM26.92,33.94c0-.59,1.17-1,1.84-1,5.36-.25,13.32-.42,21.62-.42,23.21,0,32.26,12.74,32.26,29,0,21.28-15.42,30.42-34.35,30.42-3.18,0-4.27-.17-6.54-.17v32.18c0,.67-.25,1-1,1H27.93c-.67,0-1-.25-1-1v-90Z"/></svg>